<?xml version="1.0" standalone="no"?>
<!DOCTYPE svg PUBLIC "-//W3C//DTD SVG 20010904//EN"
 "http://www.w3.org/TR/2001/REC-SVG-20010904/DTD/svg10.dtd">
<svg version="1.0" xmlns="http://www.w3.org/2000/svg"
 width="286.000000pt" height="286.000000pt" viewBox="0 0 286.000000 286.000000"
 preserveAspectRatio="xMidYMid meet">

<g transform="translate(0.000000,286.000000) scale(0.100000,-0.100000)"
fill="#ffffff" stroke="none">
<path d="M1475 2588 c-6 -16 -35 -241 -32 -244 1 -2 25 -6 53 -9 48 -7 51 -6
57 16 4 13 7 37 7 53 l0 29 67 -7 c37 -4 71 -12 75 -18 3 -7 4 -34 1 -60 -6
-48 -6 -48 23 -48 16 0 38 -3 50 -6 20 -5 22 1 39 103 9 60 15 120 13 133 -3
23 -7 25 -53 25 l-50 0 -5 -45 -5 -45 -55 3 c-91 5 -93 7 -87 63 6 46 5 49
-18 54 -14 3 -36 7 -50 10 -16 3 -27 1 -30 -7z"/>
<path d="M1329 2586 c-2 -3 -60 -12 -129 -21 -69 -9 -126 -17 -127 -19 -4 -4
25 -215 33 -244 4 -14 12 -21 21 -18 7 3 68 15 136 26 152 25 157 27 157 51 0
29 -21 32 -117 19 -49 -7 -90 -12 -93 -12 -3 1 -6 10 -8 21 -3 16 6 21 55 31
104 20 105 20 101 38 -4 19 -11 19 -106 8 -63 -8 -64 -8 -60 15 3 22 11 25 83
38 107 18 103 16 98 45 -5 23 -30 36 -44 22z"/>
<path d="M835 2448 c-71 -34 -132 -63 -134 -65 -2 -2 1 -14 7 -28 11 -24 12
-24 46 -10 58 24 64 21 106 -66 22 -45 41 -83 43 -85 6 -6 87 36 87 45 0 5
-16 43 -35 85 -19 43 -35 83 -35 90 0 7 18 19 40 26 22 7 40 19 40 26 0 22
-12 44 -24 44 -6 -1 -69 -28 -141 -62z"/>
<path d="M1933 2466 c-36 -16 -73 -79 -73 -123 0 -60 76 -133 168 -164 48 -16
118 -6 147 21 33 31 50 99 36 143 -28 84 -198 159 -278 123z m144 -86 c42 -25
52 -63 26 -98 -28 -38 -80 -41 -116 -8 -34 31 -35 69 -2 101 29 30 50 31 92 5z"/>
<path d="M2274 2241 c-46 -28 -64 -59 -64 -111 0 -48 12 -73 64 -128 34 -38
114 -82 146 -82 58 0 130 70 130 126 0 41 -11 65 -56 118 -72 85 -160 115
-220 77z m147 -100 c75 -75 -16 -168 -93 -94 -35 33 -36 66 -3 98 32 33 60 31
96 -4z"/>
<path d="M465 2200 l-28 -29 12 -103 c15 -123 30 -198 40 -198 4 0 21 15 39
33 21 22 32 43 32 63 0 19 8 36 23 48 12 10 37 32 55 49 24 24 40 31 65 29 26
-2 40 5 66 31 32 34 32 34 9 41 -77 22 -255 66 -269 66 -8 0 -28 -13 -44 -30z
m111 -66 c13 -3 24 -11 23 -18 0 -12 -58 -61 -64 -54 -2 2 -7 23 -11 48 -6 39
-5 43 10 37 10 -4 29 -10 42 -13z"/>
<path d="M1326 2149 c-32 -5 -62 -12 -65 -15 -6 -7 38 -2 127 12 50 8 57 -7
12 -26 -17 -7 -47 -27 -68 -45 -30 -27 -40 -31 -60 -24 -13 5 -31 9 -40 8 -9
0 1 -6 23 -13 54 -16 34 -26 -62 -31 -152 -9 -135 -21 24 -18 200 5 252 -10
183 -51 -17 -9 -61 -44 -99 -77 -38 -32 -74 -59 -79 -59 -6 0 -17 -13 -26 -30
-8 -16 -13 -30 -11 -30 2 0 30 26 62 58 69 69 180 152 204 152 37 0 259 -178
259 -209 0 -8 3 -11 7 -8 8 9 43 -22 43 -37 0 -6 9 -17 21 -24 11 -7 18 -19
15 -27 -3 -8 0 -12 7 -9 12 4 72 -66 97 -115 7 -14 21 -34 32 -45 37 -40 8 13
-49 88 -29 39 -53 77 -53 84 0 6 11 12 25 12 14 0 25 3 25 8 0 4 -18 7 -41 7
-35 0 -46 6 -79 42 -36 38 -38 44 -30 74 13 43 6 49 -9 9 l-11 -32 -67 61
c-38 34 -93 78 -122 98 -58 39 -55 52 6 33 91 -30 223 -83 223 -91 0 -5 6 -9
13 -9 13 0 173 -92 191 -110 6 -6 5 -15 -2 -23 -9 -11 -6 -13 16 -10 22 3 39
-8 90 -58 34 -33 62 -65 62 -70 0 -5 -16 -2 -37 6 -20 8 -38 13 -40 11 -3 -3
18 -13 46 -23 32 -11 50 -22 46 -30 -2 -7 1 -13 6 -13 6 0 9 -9 6 -19 -3 -14
-1 -18 9 -14 11 4 13 -9 9 -64 l-5 -68 13 58 c11 56 26 68 28 23 1 -16 3 -14
9 8 5 16 7 33 5 37 -3 4 1 10 7 12 10 4 10 6 1 6 -7 1 -13 6 -13 12 0 6 -7 17
-15 25 -8 9 -15 27 -15 41 0 17 -4 23 -14 20 -7 -3 -19 0 -26 6 -10 9 -11 9
-6 0 16 -28 -12 -9 -75 50 -65 62 -172 139 -239 172 -19 10 -40 25 -47 34 -7
9 -13 13 -13 8 0 -4 -17 1 -37 12 -21 10 -77 31 -125 47 -49 15 -88 31 -88 35
0 4 14 12 30 19 17 7 29 14 27 17 -2 2 -26 -6 -53 -17 l-48 -21 -68 22 c-38
12 -71 26 -75 32 -7 11 26 39 81 68 54 29 135 28 220 -1 36 -13 66 -27 66 -31
0 -4 -25 -15 -56 -24 -31 -9 -54 -18 -52 -21 3 -2 27 3 54 11 27 8 62 15 77
15 34 0 150 -78 143 -96 -3 -7 2 -10 13 -7 13 3 41 -20 96 -79 43 -46 69 -69
57 -53 -11 17 -39 48 -61 70 -72 69 -45 91 33 27 51 -42 122 -122 109 -123 -4
0 2 -4 14 -9 14 -6 24 -21 28 -44 4 -20 12 -33 18 -30 12 4 57 -56 57 -75 0
-5 6 -11 13 -14 8 -3 12 6 12 28 0 24 -3 31 -12 24 -8 -7 -21 5 -43 38 -18 26
-36 56 -41 67 -21 45 -37 67 -41 56 -2 -6 -25 11 -52 40 -26 28 -46 53 -43 56
10 10 55 -19 72 -48 13 -23 20 -27 26 -17 6 11 16 6 43 -20 19 -19 33 -38 30
-43 -3 -4 1 -8 9 -8 19 0 57 -42 57 -64 0 -9 4 -15 9 -12 15 10 101 -121 101
-154 0 -19 -73 0 -92 24 l-17 21 6 -22 c4 -19 1 -23 -18 -24 -21 -1 -20 -2 5
-8 19 -4 37 -18 49 -39 25 -43 15 -51 -26 -23 -18 13 -11 3 17 -22 30 -27 57
-64 72 -98 16 -37 23 -47 24 -31 0 15 4 21 12 16 7 -4 8 -3 4 5 -4 6 -10 9
-14 7 -12 -7 -12 57 -1 71 19 22 26 15 38 -33 9 -34 9 -50 1 -59 -8 -10 -8
-19 -1 -34 13 -24 14 -78 2 -85 -5 -4 -12 0 -15 6 -6 14 -1 -13 8 -48 3 -11 0
-29 -8 -39 -13 -18 -15 -15 -31 40 -10 33 -21 64 -26 70 -13 13 -11 5 11 -65
24 -77 25 -88 3 -114 -17 -20 -17 -20 0 -7 9 8 20 11 23 9 3 -3 8 -38 11 -78
l6 -72 -79 -76 -79 -77 -4 30 c-4 30 -4 30 -16 -10 -7 -23 -19 -41 -28 -43
-14 -3 -17 5 -18 40 0 24 -4 61 -9 83 -7 30 -8 19 -4 -46 5 -93 3 -98 -58
-129 -16 -7 -26 -15 -24 -17 2 -3 23 5 46 17 l43 22 -5 -60 c-6 -80 -27 -112
-76 -112 -20 1 -64 7 -97 15 -32 8 -61 13 -63 11 -7 -8 67 -27 126 -33 34 -3
62 -10 62 -15 0 -15 -83 -131 -125 -174 -34 -35 -51 -44 -115 -58 -41 -10
-108 -20 -147 -23 -80 -6 -86 -2 -58 47 8 14 14 30 14 35 0 6 -11 -12 -25 -39
l-26 -49 -57 6 c-64 7 -91 15 -91 27 0 4 24 23 53 41 28 19 76 56 105 82 29
26 57 45 62 42 6 -4 10 2 10 12 1 10 21 41 47 68 41 45 50 50 88 50 28 0 42 4
42 13 0 9 -8 11 -23 8 -39 -10 -37 12 9 77 52 74 60 87 53 87 -3 0 -28 -34
-56 -75 -28 -41 -54 -75 -58 -75 -5 0 -14 6 -22 13 -8 6 -6 2 3 -10 21 -24 14
-31 -37 -44 -24 -5 -26 -7 -8 -8 12 -1 22 -4 22 -7 0 -10 -50 -54 -61 -54 -5
0 -9 -6 -9 -14 0 -34 -218 -202 -250 -193 -13 3 -18 1 -13 -5 6 -11 -22 -8
-97 7 -14 3 -6 -2 18 -12 23 -9 42 -20 42 -24 0 -4 -14 -12 -30 -19 -17 -7
-29 -14 -27 -17 2 -2 24 6 48 16 49 22 98 20 162 -6 43 -19 44 -23 15 -50 -42
-38 -111 -66 -158 -66 -48 1 -181 42 -183 57 -1 5 19 14 46 21 26 7 51 16 55
20 4 5 -2 5 -13 1 -11 -4 -46 -12 -77 -18 -54 -9 -61 -8 -105 18 -79 45 -94
59 -80 74 10 10 9 12 -5 7 -18 -6 -122 92 -177 170 -45 62 -94 153 -87 160 3
4 36 -24 73 -60 36 -37 68 -67 71 -67 2 0 25 -15 51 -33 25 -19 72 -48 104
-66 34 -19 54 -37 50 -43 -4 -8 0 -9 11 -5 10 4 27 2 38 -4 11 -6 22 -8 25 -5
4 3 -20 17 -53 32 -55 24 -189 108 -199 125 -7 10 100 69 125 69 12 0 41 -19
66 -42 42 -41 44 -45 34 -77 -5 -19 -8 -37 -5 -39 3 -3 8 9 11 26 7 36 15 39
34 17 7 -9 32 -30 54 -47 29 -21 24 -14 -17 23 -32 30 -57 59 -57 64 0 6 -10
15 -22 20 -29 13 -35 35 -9 35 12 0 21 -3 21 -7 0 -13 358 -15 435 -4 61 9 72
8 82 -6 10 -13 12 -2 8 58 -3 60 -22 149 -24 115 -1 -5 -9 -2 -18 5 -10 7 -8
2 5 -12 17 -20 22 -37 22 -81 l0 -55 -47 -6 c-101 -13 -262 -17 -353 -10 l-95
8 -6 35 -6 35 -2 -32 c-1 -26 -5 -33 -22 -33 -32 0 -61 20 -55 36 3 8 1 12 -4
9 -5 -3 -30 22 -55 57 -80 109 -82 111 -88 94 -4 -9 -1 -16 6 -16 17 -1 107
-123 107 -145 0 -14 -6 -16 -30 -12 -22 5 -28 3 -24 -7 3 -8 -13 -23 -44 -39
l-48 -25 -72 65 c-74 67 -88 89 -49 78 16 -5 14 -1 -9 13 -46 29 -61 67 -58
143 l3 64 -12 -65 c-13 -64 -13 -64 -24 -35 -7 18 -12 23 -12 13 -2 -30 -15
-19 -49 40 l-33 57 23 18 c22 19 23 19 30 -4 4 -14 5 -4 3 25 -4 54 -15 76
-15 30 0 -19 -7 -34 -22 -43 -29 -18 -40 -3 -80 121 -36 109 -35 117 22 156
36 24 35 28 -5 10 -14 -6 -25 -15 -25 -20 0 -16 -29 -8 -33 10 -2 9 -3 3 -2
-14 4 -36 -8 -60 -24 -50 -7 5 -11 -1 -11 -13 0 -12 5 -21 10 -21 6 0 10 5 10
10 0 6 4 10 9 10 4 0 22 -37 39 -82 47 -128 57 -153 62 -158 18 -17 80 -123
76 -127 -3 -3 -29 12 -58 34 -46 35 -57 49 -77 107 -26 73 -33 83 -25 34 l6
-33 -27 29 c-20 22 -25 37 -23 65 2 23 8 35 16 33 10 -2 12 4 7 20 -14 46 -24
55 -25 21 0 -39 -17 -53 -25 -21 -9 36 -1 149 10 146 6 -2 12 17 15 42 3 29
10 44 18 43 7 -2 12 8 12 24 0 21 18 45 77 103 l77 75 6 -30 6 -30 7 34 c14
69 47 82 48 19 0 -24 4 -61 9 -83 6 -29 7 -16 3 47 l-5 86 32 17 c17 9 29 19
26 23 -4 3 -12 0 -18 -6 -7 -7 -18 -12 -26 -12 -11 0 -13 11 -10 53 3 28 10
64 16 80 11 26 15 27 79 28 l68 1 -54 9 c-30 5 -57 11 -59 14 -3 2 14 33 37
69 47 71 131 156 156 156 8 0 15 7 15 15 0 8 19 28 42 45 33 24 52 30 97 31
50 1 52 2 21 9 l-35 6 45 21 c25 11 52 23 60 26 8 4 -5 4 -30 1 -54 -7 -234
-86 -316 -139 -84 -55 -251 -227 -301 -313 -38 -64 -84 -171 -124 -287 -10
-29 -14 -96 -14 -240 0 -195 1 -202 29 -285 81 -236 190 -394 360 -524 217
-165 511 -244 756 -202 239 41 417 132 581 295 104 104 169 203 222 335 60
153 69 213 64 411 -4 156 -6 177 -34 260 -60 179 -121 282 -244 410 -148 154
-318 247 -528 290 -128 26 -225 30 -335 14z m402 -49 c21 -8 30 -16 24 -22 -6
-6 -28 0 -61 16 -28 15 -51 28 -51 30 0 5 35 -5 88 -24z m134 -72 c34 -24 61
-47 58 -53 -6 -14 -30 -8 -60 16 -14 11 -37 27 -52 37 -27 16 -38 42 -19 42 5
0 38 -19 73 -42z m-862 -23 c-35 -36 -93 -69 -112 -63 -24 8 101 98 136 98 6
0 -5 -16 -24 -35z m974 -2 c31 -21 56 -41 56 -45 0 -20 -53 -4 -92 28 -63 53
-64 54 -41 54 11 0 46 -17 77 -37z m-1070 -85 c-4 -7 -22 -31 -39 -53 -17 -22
-42 -57 -54 -77 -25 -43 -41 -49 -35 -15 2 12 1 15 -2 7 -21 -47 -27 -67 -25
-80 1 -9 -5 -35 -14 -59 -18 -51 -19 -65 -5 -56 6 4 10 -5 10 -19 0 -29 -20
-37 -20 -8 -1 10 -6 5 -14 -13 -7 -17 -31 -43 -54 -58 -22 -16 -59 -49 -83
-74 -24 -26 -45 -41 -47 -34 -7 20 17 138 38 188 11 27 37 63 58 81 22 20 28
29 15 22 -13 -6 -23 -7 -23 -2 0 25 162 202 185 202 4 0 5 -12 1 -27 -4 -21
-1 -18 16 13 12 24 34 48 52 57 38 19 49 21 40 5z m1469 -380 c23 -12 22 -60
-2 -89 l-19 -24 -26 55 c-34 72 -33 82 2 74 15 -4 35 -11 45 -16z m-1867 -206
c-13 -12 -17 8 -10 40 l9 33 3 -33 c2 -19 1 -36 -2 -40z m1953 -182 c1 -82
-14 -110 -23 -44 -8 60 -8 108 1 130 6 16 7 16 14 -2 4 -10 8 -48 8 -84z m-31
-93 c3 -76 -12 -91 -22 -21 -9 71 -8 96 7 92 7 -3 13 -29 15 -71z m-7 -159
l-9 -33 -1 41 c-1 22 2 44 7 48 12 12 14 -19 3 -56z m-1885 -3 c19 -35 14 -63
-13 -72 -9 -3 -33 67 -33 96 0 24 28 9 46 -24z m1864 -9 c0 -101 -50 -219
-112 -263 -43 -30 -107 -57 -116 -49 -2 3 8 46 24 96 27 89 29 92 90 140 34
27 71 60 81 74 23 32 33 33 33 2z m-1806 -81 c10 -25 22 -47 27 -51 5 -3 4 6
-3 20 -18 40 -4 41 49 1 54 -42 67 -60 57 -77 -4 -6 -3 -8 3 -5 7 4 14 -12 19
-41 l8 -47 5 34 6 34 43 -78 c43 -81 44 -99 1 -93 -18 2 -26 13 -35 43 -7 22
-13 33 -14 25 -1 -21 -60 49 -60 72 0 10 -6 18 -14 18 -9 0 -12 -8 -8 -25 2
-14 8 -25 12 -25 8 0 90 -105 90 -115 0 -3 -17 -5 -37 -5 -43 0 -73 23 -73 57
0 13 -4 22 -9 18 -17 -10 -101 122 -101 158 0 8 -7 20 -15 27 -20 17 -19 59 2
82 23 26 28 23 47 -27z m1609 -75 c-3 -11 -9 -20 -14 -20 -10 0 -12 24 -2 33
13 13 21 7 16 -13z m83 -160 c-26 -40 -123 -137 -153 -154 -13 -7 -15 -5 -10
10 41 126 40 123 77 135 19 7 50 22 69 35 19 13 37 21 39 19 3 -3 -7 -23 -22
-45z m-146 -66 c-13 -57 -61 -126 -98 -141 -39 -16 -38 -12 13 52 18 22 44 59
59 83 14 23 28 42 30 42 2 0 0 -16 -4 -36z m-1247 -42 c15 -21 45 -55 67 -77
22 -21 40 -45 40 -53 0 -28 -46 1 -120 75 -67 68 -73 77 -55 84 34 13 41 10
68 -29z m-95 -15 c22 -45 9 -52 -31 -17 -20 17 -34 36 -31 42 11 18 49 3 62
-25z m76 -54 c31 -36 30 -51 -2 -34 -17 9 -62 72 -62 87 0 9 36 -21 64 -53z
m1166 -58 c0 -11 -109 -85 -125 -85 -16 0 -16 3 6 26 29 32 119 77 119 59z
m-1044 -47 c40 -29 54 -44 42 -46 -26 -5 -138 61 -138 82 0 18 44 1 96 -36z
m94 -20 c37 -26 56 -44 47 -46 -19 -4 -82 28 -122 62 -28 24 -28 25 -8 26 12
0 49 -19 83 -42z m830 28 c0 -3 -16 -18 -37 -33 -31 -24 -48 -29 -122 -33
l-86 -6 53 -8 c28 -5 52 -12 52 -15 0 -14 -147 -54 -214 -59 -77 -5 -82 4 -18
37 20 10 46 28 56 40 11 12 28 19 40 17 12 -2 15 -1 9 1 -7 3 -13 10 -13 17 0
9 30 15 103 20 81 6 151 15 175 25 1 1 2 -1 2 -3z m-695 -107 c25 -11 44 -23
41 -26 -7 -7 -96 28 -96 38 0 12 1 12 55 -12z"/>
<path d="M618 733 c-2 -5 9 -21 25 -38 l28 -29 -6 26 c-6 22 -3 27 17 31 17 3
15 4 -5 2 -15 -1 -30 2 -33 7 -6 10 -22 11 -26 1z"/>
<path d="M2550 1920 c-57 -32 -106 -62 -108 -68 -3 -11 110 -216 135 -244 8
-9 30 -24 49 -33 33 -16 37 -15 90 9 68 31 88 68 73 137 -10 42 -118 260 -129
258 -3 -1 -52 -27 -110 -59z m151 -140 c15 -49 6 -83 -25 -100 -39 -20 -78 1
-110 60 l-27 49 23 14 c13 8 39 24 58 35 l35 22 17 -21 c10 -12 23 -38 29 -59z"/>
<path d="M275 1940 c-11 -4 -32 -21 -47 -36 -31 -34 -138 -217 -138 -237 0 -7
12 -20 27 -27 16 -8 63 -34 106 -58 60 -33 82 -41 92 -32 7 6 38 60 69 121 68
133 74 188 29 231 -45 43 -95 56 -138 38z m63 -116 c14 -10 22 -25 22 -45 0
-29 -31 -102 -49 -113 -8 -5 -121 51 -121 60 0 12 34 71 53 92 24 26 63 29 95
6z"/>
<path d="M2040 1781 c0 -5 4 -11 9 -13 5 -1 26 -30 45 -62 45 -74 47 -64 4 15
-29 53 -58 82 -58 60z"/>
<path d="M928 1713 c7 -3 16 -2 19 1 4 3 -2 6 -13 5 -11 0 -14 -3 -6 -6z"/>
<path d="M1707 1712 c-2 -4 0 -23 4 -42 5 -30 7 -31 8 -8 0 14 5 28 10 30 5 2
3 9 -4 15 -8 7 -16 9 -18 5z"/>
<path d="M1185 1701 c-3 -5 -1 -12 5 -16 5 -3 11 -21 11 -38 2 -30 2 -29 8 8
4 22 5 43 3 48 -5 10 -20 9 -27 -2z"/>
<path d="M1258 1703 c7 -3 16 -2 19 1 4 3 -2 6 -13 5 -11 0 -14 -3 -6 -6z"/>
<path d="M1106 1682 c-23 -11 -37 -12 -57 -5 -21 8 -26 8 -23 -2 3 -8 -12 -17
-41 -25 -25 -7 -44 -15 -41 -17 2 -3 29 2 59 11 91 27 96 21 42 -50 -37 -48
-59 -84 -51 -84 2 0 18 23 36 50 18 28 44 59 58 70 13 11 21 20 17 20 -17 0
18 29 38 32 16 2 18 5 7 9 -8 3 -28 -1 -44 -9z"/>
<path d="M2161 1664 c0 -11 3 -14 6 -6 3 7 2 16 -1 19 -3 4 -6 -2 -5 -13z"/>
<path d="M1915 1656 c17 -8 46 -16 65 -20 l35 -6 -35 13 c-19 8 -48 17 -65 20
l-30 6 30 -13z"/>
<path d="M850 1600 c-19 -11 -30 -19 -25 -19 6 0 26 8 45 19 19 11 31 19 25
19 -5 0 -26 -8 -45 -19z"/>
<path d="M1718 1609 c-2 -8 3 -34 13 -59 21 -53 23 -44 5 24 -7 27 -15 43 -18
35z"/>
<path d="M1202 1570 c7 -11 16 -20 20 -20 5 0 3 9 -4 20 -7 11 -16 20 -20 20
-5 0 -3 -9 4 -20z"/>
<path d="M1639 1549 l-24 -20 28 17 c15 9 27 18 27 20 0 8 -8 4 -31 -17z"/>
<path d="M2088 1543 c6 -2 18 -2 25 0 6 3 1 5 -13 5 -14 0 -19 -2 -12 -5z"/>
<path d="M965 1474 c-9 -14 -15 -27 -13 -30 2 -2 12 10 22 26 21 37 15 40 -9
4z"/>
<path d="M1529 1473 c-13 -16 -12 -17 4 -4 9 7 17 15 17 17 0 8 -8 3 -21 -13z"/>
<path d="M1750 1464 c-10 -11 -9 -14 2 -14 8 0 25 -23 38 -51 13 -28 28 -53
33 -56 4 -3 -4 18 -18 47 -14 29 -24 58 -21 65 7 19 -20 26 -34 9z"/>
<path d="M1808 1473 c7 -3 16 -2 19 1 4 3 -2 6 -13 5 -11 0 -14 -3 -6 -6z"/>
<path d="M2094 1458 l-19 -23 23 19 c21 18 27 26 19 26 -2 0 -12 -10 -23 -22z"/>
<path d="M1956 1447 c3 -10 9 -15 12 -12 3 3 0 11 -7 18 -10 9 -11 8 -5 -6z"/>
<path d="M2250 1444 c0 -4 9 -22 21 -40 11 -19 19 -37 17 -41 -3 -5 6 -18 18
-31 l22 -23 -12 33 c-19 53 -66 125 -66 102z"/>
<path d="M1350 1436 c0 -2 8 -10 18 -17 15 -13 16 -12 3 4 -13 16 -21 21 -21
13z"/>
<path d="M2211 1435 c0 -5 6 -31 13 -57 16 -51 15 -53 -46 -91 -27 -17 -28
-17 -29 5 -1 20 -2 20 -9 -5 -5 -16 -13 -34 -19 -40 -5 -7 -6 -19 -2 -26 6 -9
10 -7 15 11 8 31 96 85 107 66 6 -9 9 -7 9 8 0 11 6 26 13 33 10 10 9 11 -3 6
-11 -4 -19 8 -31 47 -9 29 -17 49 -18 43z"/>
<path d="M915 1380 c-14 -27 -23 -50 -20 -50 2 0 16 23 30 50 14 28 23 50 20
50 -2 0 -16 -22 -30 -50z"/>
<path d="M671 1404 c0 -11 3 -14 6 -6 3 7 2 16 -1 19 -3 4 -6 -2 -5 -13z"/>
<path d="M1981 1403 c-1 -6 4 -15 9 -18 6 -3 10 -15 10 -26 0 -10 5 -19 10
-19 6 0 10 5 10 12 0 6 10 23 23 37 l22 26 -26 -23 -26 -23 -16 23 c-9 13 -16
18 -16 11z"/>
<path d="M1515 1380 c-22 -11 -29 -17 -15 -14 29 8 80 33 65 33 -5 0 -28 -8
-50 -19z"/>
<path d="M1395 1380 c-3 -5 -2 -10 4 -10 5 0 13 5 16 10 3 6 2 10 -4 10 -5 0
-13 -4 -16 -10z"/>
<path d="M656 1309 c-7 -76 -7 -177 3 -244 4 -31 7 17 7 128 1 97 0 177 -1
177 -1 0 -5 -28 -9 -61z"/>
<path d="M1359 1343 c-13 -16 -12 -17 4 -4 9 7 17 15 17 17 0 8 -8 3 -21 -13z"/>
<path d="M1420 1351 c0 -5 7 -14 15 -21 12 -10 15 -10 15 3 0 8 -7 17 -15 21
-8 3 -15 2 -15 -3z"/>
<path d="M2151 1344 c0 -11 3 -14 6 -6 3 7 2 16 -1 19 -3 4 -6 -2 -5 -13z"/>
<path d="M761 1334 c0 -11 3 -14 6 -6 3 7 2 16 -1 19 -3 4 -6 -2 -5 -13z"/>
<path d="M1350 1323 c-14 -3 -30 -9 -37 -15 -7 -5 -16 -7 -22 -4 -5 3 -12 -1
-15 -9 -3 -9 -20 -22 -38 -30 -18 -8 -26 -14 -18 -15 8 0 -4 -19 -30 -47 -41
-43 -40 -42 19 10 36 31 70 57 77 57 7 0 14 4 16 9 2 6 23 19 48 30 45 20 45
22 0 14z"/>
<path d="M1847 1304 c30 -51 52 -78 58 -72 4 3 -4 16 -17 29 -13 13 -31 35
-41 49 -18 24 -18 24 0 -6z"/>
<path d="M872 1295 c-17 -37 -14 -45 4 -12 9 16 14 31 11 33 -2 2 -9 -7 -15
-21z"/>
<path d="M771 1295 c-2 -21 20 -85 30 -85 6 0 7 5 2 13 -4 6 -13 28 -19 47 -7
19 -12 31 -13 25z"/>
<path d="M2391 1274 c0 -11 3 -14 6 -6 3 7 2 16 -1 19 -3 4 -6 -2 -5 -13z"/>
<path d="M2253 1160 l2 -115 -35 -6 -35 -6 33 -2 32 -1 1 -62 2 -63 7 50 c11
66 11 219 0 275 -6 34 -8 17 -7 -70z"/>
<path d="M832 1202 c-23 -52 -28 -88 -12 -94 5 -1 11 -13 13 -26 2 -12 9 -28
17 -35 9 -8 11 -8 6 0 -3 6 -2 14 3 18 6 3 2 14 -9 25 -23 23 -27 88 -7 95 9
4 21 65 12 65 -1 0 -11 -22 -23 -48z"/>
<path d="M2062 1236 c4 -5 3 -15 -3 -23 -9 -10 -8 -13 4 -13 22 0 33 -62 17
-100 -7 -17 -10 -33 -7 -37 4 -3 11 7 17 22 11 30 17 30 23 -1 2 -10 7 -26 10
-34 3 -8 10 -28 15 -45 l10 -30 -3 35 c-1 19 -10 53 -20 75 -11 25 -15 54 -12
80 3 22 3 34 0 28 -7 -20 -23 -15 -23 6 0 10 -8 25 -17 32 -10 7 -15 9 -11 5z"/>
<path d="M1090 1200 c-19 -11 -31 -19 -27 -20 11 0 67 29 67 35 0 7 -1 7 -40
-15z"/>
<path d="M1859 1203 c-13 -16 -12 -17 4 -4 16 13 21 21 13 21 -2 0 -10 -8 -17
-17z"/>
<path d="M1925 1200 c10 -11 20 -20 23 -20 3 0 -3 9 -13 20 -10 11 -20 20 -23
20 -3 0 3 -9 13 -20z"/>
<path d="M1326 1197 c3 -10 9 -15 12 -12 3 3 0 11 -7 18 -10 9 -11 8 -5 -6z"/>
<path d="M2020 1190 c-9 -6 -10 -10 -3 -10 6 0 15 5 18 10 8 12 4 12 -15 0z"/>
<path d="M1540 1170 c6 -11 13 -20 16 -20 2 0 0 9 -6 20 -6 11 -13 20 -16 20
-2 0 0 -9 6 -20z"/>
<path d="M1960 1161 c0 -5 7 -11 15 -15 9 -3 15 0 15 9 0 8 -7 15 -15 15 -8 0
-15 -4 -15 -9z"/>
<path d="M1779 1133 l-24 -28 28 24 c25 23 32 31 24 31 -2 0 -14 -12 -28 -27z"/>
<path d="M925 1141 c5 -9 0 -20 -16 -32 l-24 -19 32 12 c30 11 35 10 63 -17
35 -33 36 -41 13 -69 -18 -21 -18 -21 5 -2 22 19 22 19 44 0 l22 -19 -22 28
c-46 62 -140 155 -117 118z"/>
<path d="M1079 1103 l-34 -37 43 33 c23 18 42 35 42 37 0 13 -20 0 -51 -33z"/>
<path d="M1370 1110 c6 -11 13 -20 16 -20 2 0 0 9 -6 20 -6 11 -13 20 -16 20
-2 0 0 -9 6 -20z"/>
<path d="M1873 1114 c-18 -8 -33 -16 -33 -19 0 -7 60 16 66 26 6 11 7 11 -33
-7z"/>
<path d="M2014 1121 c7 -11 46 -35 46 -28 0 3 -12 12 -26 22 -15 9 -23 12 -20
6z"/>
<path d="M790 1061 c0 -8 -6 -22 -13 -30 -9 -10 -11 -25 -6 -41 6 -21 7 -22 8
-5 1 11 7 30 15 41 10 13 11 25 5 35 -7 12 -9 12 -9 0z"/>
<path d="M1668 1036 c-15 -13 -33 -26 -40 -29 -10 -4 -11 -7 0 -18 8 -9 12
-10 12 -1 0 7 15 18 33 26 17 8 26 15 18 15 -11 1 -11 4 -1 16 18 22 9 18 -22
-9z"/>
<path d="M860 1027 c0 -4 9 -26 21 -49 11 -22 18 -49 16 -59 -3 -11 -1 -16 5
-13 5 3 16 -2 24 -12 14 -18 14 -18 4 4 -8 16 -8 28 1 45 11 20 11 21 -4 9
-14 -12 -19 -7 -41 35 -14 26 -25 44 -26 40z"/>
<path d="M521 1004 c0 -11 3 -14 6 -6 3 7 2 16 -1 19 -3 4 -6 -2 -5 -13z"/>
<path d="M1451 983 c7 -12 15 -20 18 -17 3 2 -3 12 -13 22 -17 16 -18 16 -5
-5z"/>
<path d="M1570 960 c-17 -17 -39 -34 -51 -38 -19 -7 -19 -9 -4 -22 9 -7 15 -9
13 -4 -2 5 17 28 42 51 25 23 41 43 37 43 -4 0 -21 -14 -37 -30z"/>
<path d="M1089 945 c17 -33 31 -51 31 -40 0 6 -10 21 -21 35 -13 17 -17 18
-10 5z"/>
<path d="M2151 944 c0 -11 3 -14 6 -6 3 7 2 16 -1 19 -3 4 -6 -2 -5 -13z"/>
<path d="M761 934 c0 -11 3 -14 6 -6 3 7 2 16 -1 19 -3 4 -6 -2 -5 -13z"/>
<path d="M1450 929 c-25 -14 -28 -18 -10 -13 39 10 70 23 70 29 0 10 -25 3
-60 -16z"/>
<path d="M2000 915 c-6 -15 -13 -32 -16 -36 -3 -5 -3 -9 0 -9 9 0 38 61 32 67
-3 3 -10 -7 -16 -22z"/>
<path d="M2242 880 c0 -14 2 -19 5 -12 2 6 2 18 0 25 -3 6 -5 1 -5 -13z"/>
<path d="M701 854 c0 -11 3 -14 6 -6 3 7 2 16 -1 19 -3 4 -6 -2 -5 -13z"/>
<path d="M829 843 c-8 -10 -21 -27 -29 -38 -15 -20 -15 -20 9 0 21 18 47 55
38 55 -2 0 -10 -8 -18 -17z"/>
<path d="M1600 805 c30 -30 57 -55 59 -55 3 0 -19 25 -49 55 -30 30 -57 55
-59 55 -3 0 19 -25 49 -55z"/>
<path d="M960 830 c6 -11 13 -20 16 -20 2 0 0 9 -6 20 -6 11 -13 20 -16 20 -2
0 0 -9 6 -20z"/>
<path d="M1147 832 c4 -18 7 -18 48 -3 24 8 42 17 40 19 -2 3 -18 -1 -36 -7
-22 -8 -36 -8 -45 0 -9 8 -11 6 -7 -9z"/>
<path d="M1950 820 c-6 -11 -8 -20 -6 -20 3 0 10 9 16 20 6 11 8 20 6 20 -3 0
-10 -9 -16 -20z"/>
<path d="M861 754 c-65 -14 -90 -25 -55 -23 28 1 162 37 139 37 -11 0 -49 -6
-84 -14z"/>
<path d="M1173 755 c3 -11 8 -30 12 -43 4 -13 1 -29 -6 -38 -10 -12 -10 -15 2
-12 24 5 27 18 12 61 -15 44 -29 67 -20 32z"/>
<path d="M1980 659 c-45 -18 -61 -27 -40 -23 35 6 144 52 125 53 -5 0 -44 -13
-85 -30z"/>
<path d="M885 660 c22 -11 47 -19 55 -19 17 1 -32 23 -70 33 -14 3 -7 -3 15
-14z"/>
<path d="M998 623 c7 -3 16 -2 19 1 4 3 -2 6 -13 5 -11 0 -14 -3 -6 -6z"/>
<path d="M1334 402 c4 -6 28 -26 53 -43 60 -42 49 -24 -13 21 -26 18 -44 28
-40 22z"/>
<path d="M1270 345 c14 -8 32 -14 40 -14 9 0 4 6 -10 14 -14 8 -32 14 -40 14
-9 0 -4 -6 10 -14z"/>
</g>
</svg>
